<?xml version="1.0" standalone="no"?>
<!DOCTYPE svg PUBLIC "-//W3C//DTD SVG 20010904//EN"
 "http://www.w3.org/TR/2001/REC-SVG-20010904/DTD/svg10.dtd">
<svg version="1.0" xmlns="http://www.w3.org/2000/svg"
 width="595.000000pt" height="167.000000pt" viewBox="0 0 595.000000 167.000000"
 preserveAspectRatio="xMidYMid meet">

<g transform="translate(0.000000,167.000000) scale(0.100000,-0.100000)"
fill="#000000" stroke="none">
<path d="M363 1379 c-30 -15 -48 -33 -62 -63 -20 -41 -21 -59 -21 -476 0 -417
1 -435 21 -476 15 -31 32 -48 63 -63 l42 -21 2554 0 2554 0 42 21 c31 15 48
32 63 63 20 41 21 59 21 476 0 417 -1 435 -21 476 -15 31 -32 48 -63 63 l-42
21 -2555 0 -2554 0 -42 -21z m576 -308 c72 -52 88 -157 34 -222 -39 -46 -60
-53 -167 -59 -122 -7 -126 -11 -126 -127 0 -76 -2 -83 -20 -83 -19 0 -20 7
-20 94 0 86 2 98 24 123 23 27 29 28 131 33 105 5 107 6 136 38 41 46 41 111
1 152 -35 34 -80 42 -212 38 l-95 -3 -3 -60 c-3 -55 -15 -80 -34 -69 -10 6
-11 158 -1 168 4 4 77 6 163 4 145 -3 157 -5 189 -27z m215 7 c13 -19 16 -60
16 -248 0 -124 -4 -231 -9 -239 -5 -8 -16 -11 -25 -8 -14 6 -16 36 -18 239 -1
179 -3 207 -7 121 -3 -61 -9 -115 -13 -118 -4 -4 -14 -5 -23 -2 -12 5 -15 27
-15 119 0 125 11 158 55 158 13 0 31 -10 39 -22z m222 -60 c46 -45 84 -87 84
-94 0 -35 -29 -20 -101 52 -43 43 -81 75 -84 72 -4 -3 5 -16 18 -29 14 -13 52
-51 86 -84 l61 -59 113 112 c115 113 145 130 175 100 30 -30 13 -61 -80 -155
l-93 -93 93 -93 c93 -94 110 -125 80 -155 -30 -30 -60 -13 -175 100 l-113 112
-85 -84 c-46 -46 -82 -86 -79 -89 2 -3 40 30 83 73 72 71 101 87 101 53 0 -6
-37 -49 -82 -94 -89 -89 -126 -105 -148 -62 -20 36 -3 63 85 144 47 42 85 82
85 88 0 6 -40 52 -90 103 -92 93 -104 118 -74 148 29 30 55 18 140 -66z m830
57 c15 -23 15 -27 0 -50 -16 -25 -18 -25 -161 -25 -152 0 -178 -8 -135 -40 25
-19 20 -40 -10 -40 -27 0 -50 27 -50 60 0 54 17 60 171 60 95 0 139 3 139 11
0 8 -43 10 -146 7 -139 -3 -147 -4 -165 -27 -27 -33 -24 -70 8 -103 26 -27 29
-28 142 -28 64 0 121 -4 127 -8 26 -17 35 -51 22 -80 -13 -27 -14 -27 -143
-33 -72 -3 -131 -7 -132 -8 -1 0 -11 -11 -23 -23 -27 -30 -26 -73 5 -103 24
-25 27 -25 188 -25 132 0 166 -3 170 -14 3 -8 3 -17 0 -20 -4 -3 -85 -6 -181
-6 l-174 0 -34 34 c-27 27 -34 42 -34 75 0 100 36 124 195 131 98 4 120 8 120
20 0 12 -21 16 -118 18 -130 3 -156 12 -183 63 -19 37 -18 94 2 125 31 47 57
53 226 54 157 0 158 0 174 -25z m145 15 c18 -10 19 -23 19 -195 0 -101 3 -190
6 -199 5 -13 26 -16 124 -16 105 0 119 -2 135 -20 15 -16 17 -26 9 -48 l-9
-27 -130 0 c-109 0 -130 2 -130 15 0 12 22 16 115 20 l115 5 -116 5 c-167 7
-159 -5 -161 234 -1 169 -2 178 -7 79 -3 -61 -9 -115 -13 -118 -4 -4 -14 -5
-23 -2 -23 9 -22 233 2 259 18 20 36 23 64 8z m2311 -9 c94 -40 158 -138 158
-241 0 -131 -99 -244 -225 -257 -47 -5 -55 -3 -55 11 0 9 6 18 13 20 6 2 34 9
62 15 66 16 107 49 139 113 55 110 13 237 -99 296 -40 21 -150 21 -191 0 -69
-37 -131 -133 -122 -189 5 -27 9 -20 27 48 48 175 296 194 372 28 24 -52 25
-108 3 -103 -11 2 -21 21 -29 53 -32 124 -177 166 -266 76 -26 -25 -39 -50
-44 -76 -11 -73 -37 -97 -80 -77 -26 12 -27 16 -23 65 8 93 69 180 152 217 55
25 152 25 208 1z m-1537 -11 c0 -12 -26 -16 -155 -20 l-155 -6 142 -2 c148 -2
173 -6 173 -27 0 -21 -25 -25 -176 -25 l-145 0 3 -47 3 -48 75 -5 c61 -4 75
-8 78 -22 3 -16 -6 -18 -81 -18 -100 0 -109 7 -118 89 -3 31 -7 -31 -8 -140
-1 -199 -7 -233 -38 -208 -21 18 -19 387 3 417 8 12 22 22 30 22 8 0 14 5 14
12 0 6 8 20 17 30 15 17 31 18 177 16 135 -3 161 -5 161 -18z m137 -151 l3
-171 37 -34 c49 -44 110 -48 157 -8 41 35 51 77 51 230 0 138 5 154 47 154 46
0 56 -35 51 -197 -4 -162 -15 -198 -75 -255 -103 -98 -282 -65 -350 65 -21 42
-22 110 -2 115 12 2 18 -7 24 -35 28 -156 204 -217 307 -107 42 46 48 74 46
232 l-2 147 -5 -150 c-6 -162 -15 -193 -67 -234 -62 -48 -143 -46 -205 6 -52
44 -59 74 -59 253 0 152 1 160 19 160 19 0 20 -10 23 -171z m776 159 c19 -19
15 -66 -7 -78 -11 -5 -71 -10 -133 -10 -75 0 -118 -4 -126 -12 -16 -16 -15
-65 1 -75 6 -4 60 -10 119 -13 88 -4 112 -9 135 -26 35 -26 61 -70 65 -109 2
-24 -1 -30 -17 -30 -14 0 -21 9 -26 32 -14 70 -60 93 -189 93 -83 0 -93 2
-115 25 -17 17 -25 35 -25 60 0 81 29 98 180 106 l115 5 -122 2 c-116 2 -123
1 -151 -23 -17 -15 -34 -41 -39 -63 -11 -46 -37 -50 -41 -7 -3 38 28 89 70
115 29 17 51 20 163 20 89 0 135 -4 143 -12z m202 -7 c6 -12 10 -110 10 -249
0 -188 -3 -231 -14 -235 -8 -3 -17 -3 -20 0 -3 4 -6 109 -6 235 0 140 -4 228
-10 228 -5 0 -11 -49 -12 -112 -2 -93 -6 -113 -18 -113 -12 0 -16 21 -18 119
-2 78 1 123 9 132 17 21 66 18 79 -5z m819 -3 c38 -28 281 -403 281 -435 0
-26 -34 -53 -60 -46 -11 3 -72 88 -146 204 -70 109 -134 199 -141 199 -10 0
-13 -39 -13 -186 0 -191 -8 -237 -36 -213 -11 9 -14 49 -14 201 0 115 4 197
11 209 13 26 49 39 74 27 11 -5 76 -96 144 -201 143 -221 130 -202 136 -195 8
7 -231 378 -257 401 -28 23 -67 22 -95 -5 -23 -21 -23 -25 -23 -224 0 -163 -3
-204 -14 -213 -28 -23 -36 21 -36 201 0 95 5 190 10 210 23 80 112 113 179 66z
m269 10 c8 -8 12 -62 12 -175 0 -156 -1 -163 -20 -163 -19 0 -20 7 -22 158 -2
153 -2 154 -7 50 -3 -58 -9 -110 -13 -113 -4 -4 -14 -5 -23 -2 -23 9 -22 213
2 239 18 21 53 24 71 6z m-4407 -64 c33 -35 34 -104 1 -136 -20 -20 -36 -24
-128 -29 -102 -5 -106 -7 -137 -38 -31 -30 -32 -34 -35 -131 -4 -90 -6 -100
-23 -100 -17 0 -19 8 -19 99 0 85 3 102 22 131 43 62 69 74 176 80 53 3 103 9
110 13 31 21 6 84 -40 100 -10 4 -18 13 -18 22 0 26 63 19 91 -11z m2044 -204
c0 -12 -17 -16 -75 -20 l-75 -5 -3 -97 c-2 -90 -4 -98 -22 -98 -19 0 -20 7
-20 100 0 132 8 142 118 138 60 -2 77 -6 77 -18z m1026 10 c22 -12 49 -61 49
-89 0 -12 -13 -35 -29 -53 l-29 -33 -134 -5 -133 -5 120 -5 c112 -5 120 -6
120 -25 0 -19 -8 -20 -110 -23 -125 -2 -158 8 -163 50 -6 47 26 58 165 58 113
0 123 2 137 21 8 12 12 29 9 38 -11 32 -36 41 -114 41 -74 0 -97 8 -84 30 8
13 171 13 196 0z m-1881 -80 c0 -19 -7 -20 -104 -20 -113 0 -136 -10 -95 -40
19 -15 21 -21 10 -33 -23 -29 -71 6 -71 52 0 52 22 61 147 61 106 0 113 -1
113 -20z"/>
<path d="M1580 945 l-105 -105 105 -105 c57 -57 106 -102 109 -99 3 2 -40 50
-94 104 l-100 100 105 105 c58 58 100 105 95 105 -6 0 -57 -47 -115 -105z"/>
</g>
</svg>
