<svg version="1.1" id="Layer_1" xmlns="http://www.w3.org/2000/svg" xmlns:xlink="http://www.w3.org/1999/xlink" x="0px" y="0px"
	 width="100%" viewBox="0 0 563 101" enable-background="new 0 0 563 101" xml:space="preserve">
<path fill="#636283" opacity="1.000000" stroke="none" 
	d="
M336.000000,1.000002 
	C361.687561,1.000000 387.375122,1.000000 413.601074,1.350727 
	C418.614258,8.154099 422.642548,14.986623 427.706390,20.938078 
	C431.692780,25.623251 436.956024,29.222033 441.443207,33.582523 
	C435.320343,39.665989 431.772003,46.570728 431.791962,54.982288 
	C431.798767,57.850975 431.485229,61.253807 435.789520,61.680756 
	C439.919617,62.090427 442.124207,59.822525 443.126251,55.427456 
	C443.944550,51.838310 445.610474,48.442410 447.279602,44.932014 
	C448.917358,44.539886 450.330902,44.427429 451.404938,43.764767 
	C454.275085,41.993977 456.688080,42.546635 459.053833,44.654739 
	C464.349030,49.373249 469.544159,54.218578 475.044678,58.686432 
	C478.057373,61.133537 481.608429,62.917789 484.878296,65.347542 
	C480.664246,74.865479 473.738922,80.168022 463.576874,81.328293 
	C462.107330,81.496078 460.832001,83.364799 459.466766,84.446396 
	C461.034027,84.924301 462.624420,85.875893 464.164703,85.800728 
	C472.184143,85.409378 478.577576,81.488075 484.550293,76.042793 
	C489.118225,77.384781 493.298645,78.695389 497.542633,80.391693 
	C498.710510,82.173691 499.814789,83.569984 501.259674,85.072113 
	C508.613953,89.222931 515.703796,93.145668 522.572632,97.423294 
	C523.840149,98.212700 524.213806,100.437637 525.000000,102.000000 
	C479.645782,102.000000 434.291534,102.000000 388.400238,101.651840 
	C386.373413,99.166870 385.005615,96.930855 383.366364,94.915665 
	C380.667328,91.597626 377.792572,88.422501 375.456909,85.128372 
	C379.914032,85.054787 383.927399,85.275635 387.888580,84.918175 
	C389.667572,84.757637 391.342194,83.440582 393.064178,82.648308 
	C391.272156,81.914917 389.533447,80.799744 387.675232,80.540062 
	C385.064514,80.175224 382.365051,80.445114 379.703522,80.444748 
	C375.495026,80.444168 371.286530,80.444588 367.078033,80.444588 
	C367.075928,79.817856 367.073792,79.191132 367.071686,78.564400 
	C373.643738,78.564400 380.215881,78.581825 386.787872,78.560547 
	C398.347717,78.523117 401.575378,75.408463 402.335571,64.044792 
	C402.968842,64.734909 403.159027,65.392868 403.525848,65.930229 
	C404.437103,67.265068 405.428986,68.544876 406.388489,69.846771 
	C406.963409,68.169586 408.153076,66.437477 408.009003,64.824516 
	C407.305389,56.948357 400.173950,50.664822 391.574585,50.230804 
	C386.928711,49.996323 382.262573,50.104710 377.606476,50.150776 
	C373.456055,50.191837 370.261841,48.987183 370.034271,44.231087 
	C369.854706,40.479134 372.672485,38.267216 377.567932,38.208702 
	C383.887268,38.133171 390.210266,38.085999 396.527679,38.218220 
	C400.597992,38.303410 403.763184,37.039429 403.645599,32.590595 
	C403.530914,28.251785 400.224518,26.959209 396.295959,26.977137 
	C389.144379,27.009769 381.990326,26.899149 374.841583,27.050713 
	C367.620300,27.203817 360.583130,32.857376 359.259552,39.903660 
	C358.881866,41.914158 360.125580,44.229233 360.625793,46.404644 
	C361.661438,44.776379 362.718781,43.161236 363.717590,41.510654 
	C363.968445,41.096088 364.031342,40.567795 364.372437,40.301056 
	C364.811218,40.797287 365.058197,41.084221 365.279053,41.763718 
	C365.184662,50.778816 369.211975,54.919128 377.807922,55.007023 
	C382.096649,55.050880 386.425385,54.678505 390.660492,55.159458 
	C393.213348,55.449368 395.621094,57.017048 397.689941,58.182667 
	C391.030426,57.894863 384.779327,57.255764 378.516479,57.105320 
	C377.014923,57.069256 375.474335,58.658207 373.951691,59.499809 
	C375.549927,60.288525 377.104126,61.626801 378.754944,61.758961 
	C383.049561,62.102779 387.512665,61.320164 391.653503,62.194553 
	C393.723816,62.631725 396.348572,65.548569 396.650116,67.642311 
	C396.891418,69.318115 394.299835,71.857170 392.398743,73.225731 
	C391.137024,74.133980 388.877869,73.731903 387.061523,73.781319 
	C379.270294,73.993294 371.477753,74.155205 363.415527,74.073883 
	C359.595886,70.192467 356.046387,66.572533 352.457764,62.488480 
	C352.425171,53.194149 352.540680,44.361786 352.366821,35.535122 
	C352.319305,33.123077 351.402771,30.728151 350.843964,27.949524 
	C349.944885,25.831196 349.170166,24.041536 348.214355,22.354452 
	C344.172241,15.219678 340.076263,8.115416 336.000000,1.000002 
M419.240875,49.417816 
	C419.240875,43.915176 419.240875,38.412537 419.240875,32.909897 
	C419.856659,32.911179 420.472412,32.912460 421.088196,32.913738 
	C421.088196,34.609268 421.087646,36.304794 421.088287,38.000320 
	C421.093750,52.139767 421.031433,66.280060 421.207001,80.417397 
	C421.225128,81.876190 422.661224,83.317375 423.439331,84.766739 
	C424.275696,83.384590 425.824097,82.010246 425.839325,80.619087 
	C426.010773,64.984474 425.982147,49.347137 425.919708,33.710876 
	C425.904602,29.923922 424.182831,27.014446 420.067657,27.131739 
	C416.284454,27.239571 414.669586,29.939190 414.665863,33.604805 
	C414.660126,39.260517 414.442017,44.927776 414.747559,50.566643 
	C414.882599,53.059334 416.079407,55.494503 416.794159,57.955791 
	C421.055634,56.544880 418.465271,52.920254 419.240875,49.417816 
z"/>
<path fill="#555377" opacity="1.000000" stroke="none" 
	d="
M89.000000,102.000000 
	C59.720673,102.000000 30.441343,102.000000 1.081007,102.000000 
	C1.081007,68.449486 1.081007,34.898724 1.081007,1.000000 
	C17.019215,1.000000 33.040951,1.000000 49.593575,1.378456 
	C51.450588,5.689895 52.939808,9.576800 54.066837,13.566030 
	C56.047176,20.575623 57.805885,27.647831 59.393749,34.463631 
	C55.031372,28.923376 49.489258,26.868996 42.944862,26.963768 
	C38.451248,27.028839 33.954067,26.893642 29.461742,26.994020 
	C12.171564,27.380356 15.277255,23.722343 15.096891,42.331238 
	C15.083516,43.711319 16.626881,45.106491 17.446533,46.494648 
	C18.230772,45.028347 19.526730,43.617550 19.693054,42.084221 
	C20.042683,38.861023 19.799250,35.573494 19.799250,32.011494 
	C29.723864,32.011494 38.846138,32.011494 48.078022,32.270897 
	C48.220581,32.715126 48.253525,32.899956 48.009083,33.361290 
	C46.175644,34.285912 44.619595,34.934021 43.063541,35.582130 
	C44.309006,36.571865 45.798050,37.372650 46.745266,38.593739 
	C48.334171,40.642059 50.889320,43.156925 50.593922,45.104858 
	C50.305260,47.008381 47.148643,49.455486 44.915215,49.874569 
	C40.729244,50.660019 36.293060,49.998840 31.974907,50.216370 
	C22.786913,50.679207 15.663626,57.354893 15.118340,66.164116 
	C14.810346,71.139801 14.857157,76.155449 15.105866,81.135033 
	C15.168530,82.389671 16.620691,83.574921 17.434313,84.792053 
	C18.218937,83.506470 19.587515,82.261650 19.680639,80.927788 
	C19.981388,76.620010 19.692986,72.274254 19.880606,67.953957 
	C19.963062,66.055222 20.646740,64.182594 21.057438,62.298119 
	C21.650524,67.977196 21.460527,73.422607 21.749331,78.842506 
	C21.856377,80.851410 23.087437,82.800430 23.805893,84.776756 
	C24.613121,82.718742 25.866245,80.714890 26.124273,78.590179 
	C26.522791,75.308609 26.148510,71.941017 26.269983,68.616051 
	C26.428364,64.280937 28.545942,61.803734 33.128742,61.860420 
	C36.124538,61.897480 39.121380,61.882553 42.117477,61.857601 
	C54.941223,61.750809 61.460640,55.707901 62.786880,43.075607 
	C64.888885,43.768208 66.681709,44.388302 68.521278,45.468571 
	C68.764771,49.928722 68.961525,53.928696 69.127785,58.181644 
	C71.029396,59.623837 72.961494,60.813061 74.962555,62.466293 
	C75.054329,69.010567 75.025909,75.091629 75.120552,81.170776 
	C75.171577,84.448685 76.516418,85.881271 80.098206,84.043518 
	C86.791222,88.430481 89.697784,94.348969 89.000000,102.000000 
z"/>
<path fill="#5E5C7F" opacity="1.000000" stroke="none" 
	d="
M321.000000,101.999992 
	C299.312439,102.000000 277.624878,102.000000 255.452560,101.605774 
	C253.591110,93.609161 249.720367,87.548363 243.728058,82.528976 
	C244.718552,75.865768 243.111786,73.867577 236.903015,73.802582 
	C230.926392,73.740005 224.937302,73.565582 218.975113,73.865807 
	C214.685974,74.081795 213.535889,72.284828 213.599121,68.318947 
	C213.771149,57.529373 213.769135,46.733311 213.578140,35.944393 
	C213.533066,33.397896 212.472778,30.869373 211.881912,27.913029 
	C211.152206,24.987539 210.514893,22.449121 209.669495,19.982012 
	C207.495529,13.637812 205.229340,7.325223 203.000000,1.000000 
	C217.687561,1.000000 232.375122,1.000000 247.591965,1.367514 
	C252.110535,10.499252 256.099823,19.263477 259.899353,28.312603 
	C258.275055,30.350006 257.180969,32.773632 255.332977,33.711040 
	C251.815933,35.495075 250.586365,38.053349 250.595108,41.698959 
	C250.625824,54.516811 250.524475,67.336052 250.718887,80.151039 
	C250.742157,81.684509 252.273804,83.195099 253.106308,84.716293 
	C253.797623,83.225594 255.067261,81.743134 255.088638,80.242897 
	C255.256958,68.426094 255.170776,56.605850 255.208313,44.786804 
	C255.213608,43.120754 255.464691,41.455482 255.602020,39.789852 
	C256.117249,39.819195 256.632477,39.848537 257.147705,39.877880 
	C257.147705,43.103962 256.561401,46.483433 257.351288,49.502876 
	C257.888916,51.557999 260.161987,54.364395 261.992584,54.642952 
	C266.875946,55.386040 271.944153,55.065697 276.927246,54.870541 
	C277.888733,54.832886 278.797211,53.443008 279.730164,52.676918 
	C278.818268,51.861477 278.016327,50.583771 276.969666,50.334747 
	C275.230713,49.921009 273.334625,50.142887 271.504669,50.140663 
	C261.161591,50.128105 261.158356,50.132214 262.172668,39.592785 
	C262.200378,39.304600 262.482727,39.040924 262.860657,38.405376 
	C267.764771,38.405376 272.880646,38.405376 278.035522,38.753288 
	C278.807465,40.754066 279.306061,42.567238 280.309875,44.034863 
	C289.796722,57.905247 299.324127,71.748543 308.940033,85.529747 
	C312.832733,91.108650 316.972626,96.515076 321.000000,101.999992 
M261.942596,79.142456 
	C261.946442,74.661133 262.056946,70.176430 261.914764,65.699745 
	C261.827484,62.951183 262.822174,61.747723 265.630585,61.865753 
	C268.612549,61.991085 271.648682,62.186268 274.575500,61.761185 
	C276.369476,61.500629 278.002502,60.131855 279.707825,59.260757 
	C278.095703,58.496338 276.534790,57.247234 274.860626,57.070412 
	C271.578125,56.723724 268.230713,56.906521 264.913391,56.992619 
	C258.892029,57.148899 257.239258,58.723740 257.097717,64.658447 
	C256.975098,69.800797 256.874481,74.959663 257.177460,80.086800 
	C257.272736,81.699249 258.706146,83.232620 259.527069,84.802193 
	C260.331360,83.216499 261.135620,81.630806 261.942596,79.142456 
z"/>
<path fill="#5A597C" opacity="1.000000" stroke="none" 
	d="
M197.000000,102.000000 
	C178.979111,102.000000 160.958206,102.000000 142.433258,101.620789 
	C139.615341,95.561020 137.301483,89.880478 135.343170,84.316422 
	C138.952042,85.658043 142.230347,85.201797 143.081055,81.774559 
	C143.622498,79.593285 142.602982,76.155434 141.018387,74.471214 
	C135.230484,68.319374 128.911407,62.667271 122.164635,56.227646 
	C128.968338,49.580345 134.907120,43.789799 140.831558,37.984592 
	C143.547348,35.323433 145.397171,32.405258 142.374847,28.859844 
	C139.928177,25.989695 136.618484,26.432816 132.875427,30.077791 
	C127.388687,35.420761 121.981033,40.844952 116.280136,45.966843 
	C112.024796,36.638554 107.760239,27.683857 104.132828,18.478098 
	C101.915749,12.851502 100.677734,6.839118 99.000000,1.000000 
	C124.020897,1.000000 149.041794,1.000000 174.625443,1.361840 
	C178.457291,10.088978 181.726379,18.454275 184.530182,26.876934 
	C177.244843,26.948889 170.424438,26.925211 163.604828,26.987574 
	C154.692825,27.069071 148.835312,32.401569 148.827606,40.356228 
	C148.819580,48.620804 154.642502,53.940350 163.838303,54.011356 
	C169.660110,54.056313 175.486786,53.918598 181.300751,54.139809 
	C182.402679,54.181736 183.455124,55.524963 184.530396,56.267761 
	C183.491898,56.880886 182.517853,57.788399 181.398788,58.033375 
	C179.968307,58.346523 178.420059,58.096958 176.923965,58.139370 
	C170.950806,58.308701 164.893356,57.936634 159.027390,58.824268 
	C152.103760,59.871941 148.043503,66.544769 148.948944,73.762451 
	C149.751801,80.162117 155.128571,84.970787 161.559555,85.012474 
	C171.371475,85.076073 181.183502,85.122902 191.032837,85.541840 
	C191.720963,87.590279 192.397675,89.264259 193.017181,90.959160 
	C194.360306,94.633766 195.674179,98.319069 197.000000,102.000000 
z"/>
<path fill="#575679" opacity="1.000000" stroke="none" 
	d="
M134.987625,84.199928 
	C137.301483,89.880478 139.615341,95.561020 141.964600,101.620789 
	C124.645775,102.000000 107.291542,102.000000 89.468658,102.000000 
	C89.697784,94.348969 86.791222,88.430481 80.145470,83.582321 
	C79.888542,78.677589 79.938469,74.362854 79.940742,70.048096 
	C79.947136,57.931709 79.975876,45.815060 79.903572,33.699070 
	C79.880989,29.916239 78.160889,27.021784 74.066849,27.130024 
	C70.309349,27.229364 68.673843,29.885206 68.648239,33.562714 
	C68.621674,37.378159 68.534950,41.193188 68.474533,45.008396 
	C66.681709,44.388302 64.888885,43.768208 62.662201,42.707813 
	C61.371365,39.742947 60.514385,37.218384 59.657410,34.693817 
	C57.805885,27.647831 56.047176,20.575623 54.066837,13.566030 
	C52.939808,9.576800 51.450588,5.689895 50.062233,1.378456 
	C66.020897,1.000000 82.041786,1.000000 98.531342,1.000000 
	C100.677734,6.839118 101.915749,12.851502 104.132828,18.478098 
	C107.760239,27.683857 112.024796,36.638554 116.024704,46.322357 
	C115.058762,47.680805 114.088722,48.416050 113.706352,48.705868 
	C108.127640,40.082870 101.153412,33.417530 93.411873,27.575100 
	C92.397263,26.809387 89.301300,27.552525 88.100815,28.632359 
	C86.892876,29.718903 86.229843,32.186161 86.472610,33.884830 
	C86.699211,35.470341 88.255173,37.016796 89.527321,38.276028 
	C95.297501,43.987671 101.174286,49.591614 107.221115,55.435749 
	C105.455833,57.400761 104.416870,58.652725 103.279076,59.807293 
	C98.370872,64.787796 93.428032,69.734131 88.509361,74.704346 
	C85.825554,77.416267 84.776527,80.470596 87.835526,83.424393 
	C90.888969,86.372810 93.884369,85.157227 96.559326,82.483757 
	C100.798653,78.246780 105.160309,74.126526 109.269302,69.767517 
	C110.985596,67.946800 112.186935,65.640656 113.902992,63.147614 
	C120.714554,69.948738 127.851089,77.074333 134.987625,84.199928 
z"/>
<path fill="#605E80" opacity="1.000000" stroke="none" 
	d="
M260.089111,28.027700 
	C256.099823,19.263477 252.110535,10.499252 248.060623,1.367514 
	C264.354218,1.000000 280.708466,1.000000 297.602478,1.354797 
	C298.664795,2.911096 299.094482,4.163874 299.724945,5.305774 
	C303.767456,12.627452 307.854034,19.924795 311.539185,27.177586 
	C310.265167,28.720114 308.629608,30.306755 308.611511,31.911634 
	C308.487640,42.897259 308.703094,53.886707 308.399475,64.902824 
	C307.716675,64.949875 307.443573,64.969025 307.065460,64.612640 
	C306.892059,63.744656 306.978546,63.146812 306.727844,62.778416 
	C305.757111,61.352047 304.678986,59.998749 303.640839,58.618248 
	C303.089386,60.181286 301.699554,62.045296 302.133667,63.254543 
	C303.886108,68.136230 305.272034,73.606789 308.504150,77.403503 
	C314.970459,84.999397 323.770844,87.765320 333.673981,84.938042 
	C344.708282,81.787811 350.788452,74.190712 352.496887,62.952595 
	C356.046387,66.572533 359.595886,70.192467 363.171295,74.356400 
	C362.706970,77.295120 361.244385,80.096542 362.023895,81.960167 
	C362.687439,83.546631 365.847687,84.417305 368.060059,84.935005 
	C370.269348,85.451996 372.673309,85.137245 374.991913,85.187119 
	C377.792572,88.422501 380.667328,91.597626 383.366364,94.915665 
	C385.005615,96.930855 386.373413,99.166870 387.931580,101.651840 
	C365.979095,102.000000 343.958221,102.000000 321.468689,101.999992 
	C316.972626,96.515076 312.832733,91.108650 308.940033,85.529747 
	C299.324127,71.748543 289.796722,57.905247 280.309875,44.034863 
	C279.306061,42.567238 278.807465,40.754066 278.498840,38.678543 
	C283.571594,38.233788 288.226318,38.342205 292.865051,38.119282 
	C294.503662,38.040535 296.103333,37.152546 297.720795,36.634026 
	C296.778839,35.161022 295.836884,33.688015 295.233917,32.745071 
	C296.035675,31.385836 296.847839,30.008965 297.660004,28.632095 
	C296.211273,28.082117 294.780731,27.123240 293.310455,27.057880 
	C288.670746,26.851631 284.011566,26.849594 279.368378,27.010956 
	C272.937958,27.234425 266.515167,27.678236 260.089111,28.027700 
z"/>
<path fill="#5C5C7D" opacity="1.000000" stroke="none" 
	d="
M197.468658,102.000000 
	C195.674179,98.319069 194.360306,94.633766 193.017181,90.959160 
	C192.397675,89.264259 191.720963,87.590279 191.426636,85.480469 
	C193.146881,84.265236 194.510666,83.476349 195.874451,82.687469 
	C194.554871,81.957039 193.306381,80.985451 191.894196,80.569206 
	C190.671021,80.208664 189.262192,80.472778 187.935410,80.469727 
	C179.477249,80.450287 171.009476,80.642868 162.568222,80.256065 
	C160.654404,80.168373 158.832596,78.072609 157.305817,76.981308 
	C158.074478,77.310020 158.522629,77.794991 158.934097,77.765648 
	C160.593246,77.647346 162.241058,77.370300 163.893066,77.151886 
	C163.118713,75.954628 162.316681,74.774078 161.580017,73.554070 
	C161.109619,72.775032 160.735947,71.937592 160.318909,71.126343 
	C161.291550,70.628555 162.252640,69.727783 163.238708,69.699539 
	C168.881287,69.537979 174.538879,69.753204 180.170578,69.452034 
	C181.778305,69.366058 183.316833,67.986275 184.887100,67.199776 
	C183.318130,66.398659 181.736877,64.888351 180.182251,64.915283 
	C172.069427,65.055801 163.963364,65.586952 156.013672,65.635956 
	C158.622437,64.478424 161.039337,63.116405 163.529205,62.966534 
	C169.332962,62.617188 175.172302,62.897121 180.996307,62.834843 
	C186.141968,62.779816 189.294525,60.270649 189.404587,56.296772 
	C189.524384,51.971729 186.492844,49.299526 181.001236,49.181934 
	C175.345535,49.060833 169.684906,49.187450 164.027420,49.121483 
	C162.350128,49.101929 160.676163,48.797733 159.000671,48.623970 
	C160.074783,47.389526 161.625061,47.595562 162.032974,47.008213 
	C162.769104,45.948296 163.332413,44.278629 163.023743,43.113811 
	C162.681732,41.823212 161.281876,40.812931 160.342667,39.680584 
	C162.007767,39.182358 163.664764,38.287971 165.339340,38.253788 
	C172.991440,38.097584 180.649582,38.103790 188.303253,38.213299 
	C192.315094,38.270702 196.100479,37.216591 196.124268,32.863651 
	C196.147079,28.691061 192.872040,26.612492 188.479340,26.961792 
	C187.329102,27.053257 186.157349,26.874325 184.995483,26.819572 
	C181.726379,18.454275 178.457291,10.088978 175.094101,1.361840 
	C184.020889,1.000000 193.041794,1.000000 202.531342,1.000000 
	C205.229340,7.325223 207.495529,13.637812 209.669495,19.982012 
	C210.514893,22.449121 211.152206,24.987539 211.530090,27.765461 
	C206.017181,26.218704 202.482162,27.923559 202.274506,32.862240 
	C201.966812,40.180168 202.089371,47.523056 202.291595,54.848057 
	C202.321533,55.932415 203.791611,56.977013 204.595413,58.040009 
	C205.397919,56.981754 206.853622,55.948250 206.894821,54.861141 
	C207.128067,48.704807 206.999481,42.535442 207.051376,36.370995 
	C207.062057,35.102230 207.315781,33.835514 207.457458,32.567852 
	C207.933640,32.619442 208.409805,32.671032 208.885986,32.722626 
	C208.885986,34.480835 208.885452,36.239048 208.886063,37.997257 
	C208.889862,48.827454 208.837708,59.658081 208.920944,70.487671 
	C208.964493,76.154610 211.168106,78.403160 216.767487,78.529137 
	C222.596359,78.660271 228.430359,78.549316 234.261520,78.605698 
	C235.697632,78.619583 237.131424,78.872215 238.566299,79.015091 
	C236.663696,80.262787 234.885300,80.395279 233.105896,80.410408 
	C227.774582,80.455734 222.434143,80.298561 217.118057,80.594078 
	C215.941467,80.659485 214.850327,82.261795 213.719833,83.156418 
	C214.895721,83.780624 216.059067,84.915733 217.249557,84.944962 
	C224.243332,85.116692 231.248520,85.176094 238.237930,84.931816 
	C240.055786,84.868271 241.831024,83.585083 243.625854,82.862091 
	C249.720367,87.548363 253.591110,93.609161 254.983902,101.605774 
	C235.979111,102.000000 216.958206,102.000000 197.468658,102.000000 
z"/>
<path fill="#696888" opacity="1.000000" stroke="none" 
	d="
M474.000000,0.999999 
	C503.913971,1.000000 533.827942,1.000000 564.000000,1.000000 
	C564.000000,21.686846 564.000000,42.374763 563.601746,63.522469 
	C559.194702,62.656742 555.185852,61.331234 551.118347,59.539886 
	C551.043762,51.084438 550.980225,43.094517 551.031982,35.105347 
	C551.058167,31.064865 550.189087,27.620546 545.495056,27.093866 
	C541.883423,26.688639 539.814880,29.820021 539.780334,35.277260 
	C539.749756,40.104259 539.560547,44.945335 539.866821,49.753101 
	C540.022644,52.198898 538.082214,55.781975 542.322083,56.515850 
	C542.600403,56.564030 544.121277,52.167332 544.250183,49.793941 
	C544.547729,44.314987 544.344727,38.808853 544.344727,33.313740 
	C544.961182,33.326168 545.577698,33.338600 546.194153,33.351032 
	C546.194153,40.768326 546.086060,48.187817 546.236755,55.602043 
	C546.320435,59.716621 546.836060,63.822414 546.942139,68.154015 
	C546.444092,68.674835 546.160889,68.973801 545.609741,69.054375 
	C538.224731,57.764969 531.128296,46.680653 523.984436,35.627033 
	C517.945984,26.283787 511.661255,24.718027 501.983612,29.699926 
	C500.255035,26.786737 498.981628,23.782358 496.783661,21.806564 
	C492.639923,18.081749 487.733704,15.206599 483.579346,11.491860 
	C480.067169,8.351398 477.169586,4.523596 474.000000,0.999999 
z"/>
<path fill="#666585" opacity="1.000000" stroke="none" 
	d="
M473.531342,0.999999 
	C477.169586,4.523596 480.067169,8.351398 483.579346,11.491860 
	C487.733704,15.206599 492.639923,18.081749 496.783661,21.806564 
	C498.981628,23.782358 500.255035,26.786737 501.818909,30.003605 
	C500.354523,34.476597 498.028473,38.229744 497.861023,42.076851 
	C497.311523,54.701530 497.545929,67.360321 497.479065,80.005997 
	C493.298645,78.695389 489.118225,77.384781 484.683411,75.737778 
	C485.756012,73.303291 487.226501,71.281281 488.386230,69.094452 
	C494.813110,56.975586 491.290344,37.780983 475.430420,29.742388 
	C463.338470,23.613581 452.174683,25.128363 441.652130,33.303360 
	C436.956024,29.222033 431.692780,25.623251 427.706390,20.938078 
	C422.642548,14.986623 418.614258,8.154099 414.069733,1.350727 
	C433.687561,1.000000 453.375122,1.000000 473.531342,0.999999 
z"/>
<path fill="#626182" opacity="1.000000" stroke="none" 
	d="
M311.926086,27.230141 
	C307.854034,19.924795 303.767456,12.627452 299.724945,5.305774 
	C299.094482,4.163874 298.664795,2.911096 298.071106,1.354797 
	C310.354218,1.000000 322.708466,1.000000 335.531342,1.000002 
	C340.076263,8.115416 344.172241,15.219678 348.214355,22.354452 
	C349.170166,24.041536 349.944885,25.831196 350.486938,27.816631 
	C344.269440,26.010134 341.257385,28.017214 341.172699,34.306145 
	C341.060669,42.623718 341.200562,50.944427 341.124237,59.262802 
	C341.039215,68.528397 335.398102,74.762642 327.203766,74.810890 
	C319.017212,74.859093 313.150391,68.571243 313.050568,59.426891 
	C312.954285,50.609737 313.093414,41.789886 312.979431,32.973156 
	C312.954651,31.054600 312.293915,29.144264 311.926086,27.230141 
z"/>
<path fill="#666585" opacity="1.000000" stroke="none" 
	d="
M551.177063,60.005722 
	C555.185852,61.331234 559.194702,62.656742 563.601746,63.991127 
	C564.000000,76.594254 564.000000,89.188515 564.000000,102.000000 
	C551.313293,102.000000 538.625305,102.000000 525.468628,102.000000 
	C524.213806,100.437637 523.840149,98.212700 522.572632,97.423294 
	C515.703796,93.145668 508.613953,89.222931 501.501038,84.720505 
	C501.680054,82.326744 502.186218,80.391960 502.199188,78.453873 
	C502.279327,66.476311 502.171143,54.497036 502.320984,42.520782 
	C502.350250,40.181858 503.237640,37.853668 503.908020,34.671928 
	C504.869293,35.938114 505.060181,36.072357 505.057678,36.202873 
	C504.766815,51.303158 504.459106,66.403122 504.168182,81.503403 
	C504.158813,81.991821 504.146332,82.633041 504.424744,82.943039 
	C505.045441,83.633995 505.850220,84.623482 506.578705,84.622414 
	C507.297577,84.621361 508.397217,83.675919 508.645721,82.919922 
	C509.045898,81.702438 508.947449,80.300339 508.949829,78.976044 
	C508.970795,67.330734 508.899719,55.684540 509.044525,44.040947 
	C509.066193,42.301434 510.067841,40.574108 510.616150,38.841148 
	C512.030823,40.069057 513.737427,41.086983 514.801636,42.566879 
	C517.322571,46.072708 519.536011,49.799450 521.878235,53.434013 
	C527.914001,62.800053 533.930969,72.178276 540.001221,81.521950 
	C542.040283,84.660645 544.834656,86.535263 548.347290,84.066887 
	C551.638000,81.754486 551.520203,78.544632 549.390442,75.273178 
	C548.127319,73.333076 547.042664,71.276802 545.877747,69.272766 
	C546.160889,68.973801 546.444092,68.674835 547.335571,68.163536 
	C553.280396,67.035736 550.054749,62.636074 551.177063,60.005722 
z"/>
<path fill="#A8E7D4" opacity="1.000000" stroke="none" 
	d="
M545.609741,69.054367 
	C547.042664,71.276802 548.127319,73.333076 549.390442,75.273178 
	C551.520203,78.544632 551.638000,81.754486 548.347290,84.066887 
	C544.834656,86.535263 542.040283,84.660645 540.001221,81.521950 
	C533.930969,72.178276 527.914001,62.800053 521.878235,53.434013 
	C519.536011,49.799450 517.322571,46.072708 514.801636,42.566879 
	C513.737427,41.086983 512.030823,40.069057 510.616150,38.841148 
	C510.067841,40.574108 509.066193,42.301434 509.044525,44.040947 
	C508.899719,55.684540 508.970795,67.330734 508.949829,78.976044 
	C508.947449,80.300339 509.045898,81.702438 508.645721,82.919922 
	C508.397217,83.675919 507.297577,84.621361 506.578705,84.622414 
	C505.850220,84.623482 505.045441,83.633995 504.424744,82.943039 
	C504.146332,82.633041 504.158813,81.991821 504.168182,81.503403 
	C504.459106,66.403122 504.766815,51.303158 505.057678,36.202873 
	C505.060181,36.072357 504.869293,35.938114 503.908020,34.671928 
	C503.237640,37.853668 502.350250,40.181858 502.320984,42.520782 
	C502.171143,54.497036 502.279327,66.476311 502.199188,78.453873 
	C502.186218,80.391960 501.680054,82.326744 501.160461,84.614670 
	C499.814789,83.569984 498.710510,82.173691 497.542664,80.391701 
	C497.545929,67.360321 497.311523,54.701530 497.861023,42.076851 
	C498.028473,38.229744 500.354523,34.476597 501.856689,30.376736 
	C511.661255,24.718027 517.945984,26.283787 523.984436,35.627033 
	C531.128296,46.680653 538.224731,57.764969 545.609741,69.054367 
M514.299438,32.690304 
	C511.588013,32.690304 508.876617,32.690304 506.165192,32.690304 
	C506.187622,33.189602 506.210022,33.688900 506.232452,34.188198 
	C508.741119,34.188198 511.249817,34.188198 514.192871,34.700874 
	C515.784058,36.594517 517.589417,38.348461 518.931152,40.404881 
	C526.638000,52.217144 534.226685,64.106461 541.880127,75.953682 
	C542.782654,77.350700 543.835876,78.650291 544.819275,79.995049 
	C545.539734,78.689766 545.400146,77.905998 545.005493,77.284050 
	C536.471130,63.833817 527.953613,50.372250 519.290405,37.005226 
	C518.271912,35.433655 516.421753,34.401024 514.299438,32.690304 
z"/>
<path fill="#A8E6D4" opacity="1.000000" stroke="none" 
	d="
M311.539185,27.177586 
	C312.293915,29.144264 312.954651,31.054600 312.979431,32.973156 
	C313.093414,41.789886 312.954285,50.609737 313.050568,59.426891 
	C313.150391,68.571243 319.017212,74.859093 327.203766,74.810890 
	C335.398102,74.762642 341.039215,68.528397 341.124237,59.262802 
	C341.200562,50.944427 341.060669,42.623718 341.172699,34.306145 
	C341.257385,28.017214 344.269440,26.010134 350.528015,28.192474 
	C351.402771,30.728151 352.319305,33.123077 352.366821,35.535122 
	C352.540680,44.361786 352.425171,53.194149 352.457764,62.488480 
	C350.788452,74.190712 344.708282,81.787811 333.673981,84.938042 
	C323.770844,87.765320 314.970459,84.999397 308.504150,77.403503 
	C305.272034,73.606789 303.886108,68.136230 302.133667,63.254543 
	C301.699554,62.045296 303.089386,60.181286 303.640839,58.618248 
	C304.678986,59.998749 305.757111,61.352047 306.727844,62.778416 
	C306.978546,63.146812 306.892059,63.744656 307.071350,64.981873 
	C308.017426,67.672585 308.852692,69.618507 309.687958,71.564430 
	C310.165863,71.380424 310.643799,71.196426 311.121735,71.012421 
	C310.350891,68.966591 309.580048,66.920753 308.809174,64.874924 
	C308.703094,53.886707 308.487640,42.897259 308.611511,31.911634 
	C308.629608,30.306755 310.265167,28.720114 311.539185,27.177586 
M318.079071,76.674179 
	C315.811279,75.015030 313.543457,73.355881 311.275665,71.696732 
	C311.268890,73.310104 311.721497,74.373360 312.489624,75.105736 
	C318.691772,81.019371 325.928955,82.952347 334.062286,79.984772 
	C342.797180,76.797707 347.429504,70.221619 347.800964,61.045292 
	C348.150665,52.407314 347.919128,43.744572 347.862793,35.093254 
	C347.856995,34.200527 347.302032,33.311378 347.001862,32.420570 
	C345.829742,41.575706 345.983704,50.533234 345.795319,59.483559 
	C345.477173,74.600197 332.892517,82.695930 318.079071,76.674179 
z"/>
<path fill="#A8E6D4" opacity="1.000000" stroke="none" 
	d="
M441.443207,33.582520 
	C452.174683,25.128363 463.338470,23.613581 475.430420,29.742388 
	C491.290344,37.780983 494.813110,56.975586 488.386230,69.094452 
	C487.226501,71.281281 485.756012,73.303291 484.295898,75.706406 
	C478.577576,81.488075 472.184143,85.409378 464.164703,85.800728 
	C462.624420,85.875893 461.034027,84.924301 459.466766,84.446396 
	C460.832001,83.364799 462.107330,81.496078 463.576874,81.328293 
	C473.738922,80.168022 480.664246,74.865479 485.085754,65.019127 
	C488.151703,54.731796 486.494049,45.534283 481.380005,42.427517 
	C482.397888,45.880192 483.711426,49.283188 484.302094,52.807350 
	C484.563354,54.366184 483.360168,56.170460 482.821777,57.863312 
	C481.852631,56.438854 480.292236,55.120979 480.013000,53.572147 
	C478.518158,45.279961 473.678589,39.980682 465.751160,37.909096 
	C458.057953,35.898701 451.706177,38.653858 446.900574,44.960831 
	C445.610474,48.442410 443.944550,51.838310 443.126251,55.427456 
	C442.124207,59.822525 439.919617,62.090427 435.789520,61.680756 
	C431.485229,61.253807 431.798767,57.850975 431.791962,54.982288 
	C431.772003,46.570728 435.320343,39.665989 441.443207,33.582520 
M447.270447,37.501987 
	C455.713989,31.512774 464.678650,31.574152 475.006989,36.340767 
	C467.920593,28.715807 454.781311,29.409941 445.103516,36.967804 
	C438.218048,43.223038 434.890106,51.887512 438.108551,56.754536 
	C438.485260,48.987030 441.292694,42.795521 447.270447,37.501987 
M480.796295,40.537792 
	C479.812866,39.324150 478.829437,38.110512 477.846039,36.896870 
	C477.473572,37.256687 477.101105,37.616505 476.728638,37.976318 
	C477.929626,39.007755 479.130615,40.039192 480.796295,40.537792 
z"/>
<path fill="#A8E7D4" opacity="1.000000" stroke="none" 
	d="
M398.094025,58.010551 
	C395.621094,57.017048 393.213348,55.449368 390.660492,55.159458 
	C386.425385,54.678505 382.096649,55.050880 377.807922,55.007023 
	C369.211975,54.919128 365.184662,50.778816 365.491028,41.493240 
	C368.165558,38.483734 370.602051,36.137268 373.504150,33.767006 
	C381.896118,33.743210 389.822510,33.743210 397.748932,33.743210 
	C397.749359,33.221016 397.749786,32.698818 397.750214,32.176624 
	C396.956635,32.076500 396.161957,31.881714 395.369659,31.890985 
	C387.925964,31.978075 380.482727,32.100044 372.692200,32.247185 
	C369.623566,34.885540 366.902100,37.488655 364.180603,40.091766 
	C364.031342,40.567795 363.968445,41.096088 363.717590,41.510654 
	C362.718781,43.161236 361.661438,44.776379 360.625793,46.404644 
	C360.125580,44.229233 358.881866,41.914158 359.259552,39.903660 
	C360.583130,32.857376 367.620300,27.203817 374.841583,27.050713 
	C381.990326,26.899149 389.144379,27.009769 396.295959,26.977137 
	C400.224518,26.959209 403.530914,28.251785 403.645599,32.590595 
	C403.763184,37.039429 400.597992,38.303410 396.527679,38.218220 
	C390.210266,38.085999 383.887268,38.133171 377.567932,38.208702 
	C372.672485,38.267216 369.854706,40.479134 370.034271,44.231087 
	C370.261841,48.987183 373.456055,50.191837 377.606476,50.150776 
	C382.262573,50.104710 386.928711,49.996323 391.574585,50.230804 
	C400.173950,50.664822 407.305389,56.948357 408.009003,64.824516 
	C408.153076,66.437477 406.963409,68.169586 406.388489,69.846771 
	C405.428986,68.544876 404.437103,67.265068 403.525848,65.930229 
	C403.159027,65.392868 402.968842,64.734909 402.341125,64.074074 
	C401.984009,64.016304 402.033905,64.048950 402.304016,63.756630 
	C402.052429,62.620041 401.530762,61.775768 401.013519,60.958466 
	C401.017975,60.985439 401.064178,61.014683 401.054199,60.670845 
	C400.020569,59.528629 398.996918,58.730255 397.997498,57.960724 
	C398.021698,57.989567 398.094025,58.010555 398.094025,58.010551 
z"/>
<path fill="#A6E3D2" opacity="1.000000" stroke="none" 
	d="
M375.456909,85.128372 
	C372.673309,85.137245 370.269348,85.451996 368.060059,84.935005 
	C365.847687,84.417305 362.687439,83.546631 362.023895,81.960167 
	C361.244385,80.096542 362.706970,77.295120 363.441437,74.617889 
	C371.477753,74.155205 379.270294,73.993294 387.061523,73.781319 
	C388.877869,73.731903 391.137024,74.133980 392.398743,73.225731 
	C394.299835,71.857170 396.891418,69.318115 396.650116,67.642311 
	C396.348572,65.548569 393.723816,62.631725 391.653503,62.194553 
	C387.512665,61.320164 383.049561,62.102779 378.754944,61.758961 
	C377.104126,61.626801 375.549927,60.288525 373.951691,59.499809 
	C375.474335,58.658207 377.014923,57.069256 378.516479,57.105320 
	C384.779327,57.255764 391.030426,57.894863 397.689941,58.182671 
	C398.094025,58.010555 398.021698,57.989567 397.881287,58.326603 
	C398.848633,59.447323 399.956421,60.231003 401.064178,61.014687 
	C401.064178,61.014683 401.017975,60.985439 400.724518,61.239693 
	C400.965332,62.345619 401.499603,63.197289 402.033875,64.048950 
	C402.033905,64.048950 401.984009,64.016304 401.978455,63.987022 
	C401.575378,75.408463 398.347717,78.523117 386.787872,78.560547 
	C380.215881,78.581825 373.643738,78.564400 367.071686,78.564400 
	C367.073792,79.191132 367.075928,79.817856 367.078033,80.444588 
	C371.286530,80.444588 375.495026,80.444168 379.703522,80.444748 
	C382.365051,80.445114 385.064514,80.175224 387.675232,80.540062 
	C389.533447,80.799744 391.272156,81.914917 393.064178,82.648308 
	C391.342194,83.440582 389.667572,84.757637 387.888580,84.918175 
	C383.927399,85.275635 379.914032,85.054787 375.456909,85.128372 
z"/>
<path fill="#A8E7D4" opacity="1.000000" stroke="none" 
	d="
M419.240845,49.900452 
	C418.465271,52.920254 421.055634,56.544880 416.794189,57.955788 
	C416.079407,55.494503 414.882599,53.059334 414.747559,50.566643 
	C414.442017,44.927776 414.660126,39.260517 414.665863,33.604805 
	C414.669586,29.939190 416.284454,27.239571 420.067657,27.131739 
	C424.182831,27.014446 425.904602,29.923922 425.919708,33.710876 
	C425.982147,49.347137 426.010773,64.984474 425.839325,80.619087 
	C425.824097,82.010246 424.275696,83.384590 423.439331,84.766739 
	C422.661224,83.317375 421.225128,81.876190 421.207001,80.417397 
	C421.031433,66.280060 421.093750,52.139767 421.088287,38.000320 
	C421.087646,36.304794 421.088196,34.609268 421.088196,32.913738 
	C420.472412,32.912460 419.856659,32.911179 419.240875,32.909897 
	C419.240875,38.412537 419.240875,43.915176 419.240845,49.900452 
z"/>
<path fill="#676686" opacity="1.000000" stroke="none" 
	d="
M447.279602,44.932018 
	C451.706177,38.653858 458.057953,35.898701 465.751160,37.909096 
	C473.678589,39.980682 478.518158,45.279961 480.013000,53.572147 
	C480.292236,55.120979 481.852631,56.438854 482.821777,57.863312 
	C483.360168,56.170460 484.563354,54.366184 484.302094,52.807350 
	C483.711426,49.283188 482.397888,45.880192 481.380005,42.427517 
	C486.494049,45.534283 488.151703,54.731796 485.124207,64.672508 
	C481.608429,62.917789 478.057373,61.133537 475.044678,58.686432 
	C469.544159,54.218578 464.349030,49.373249 459.053833,44.654739 
	C456.688080,42.546635 454.275085,41.993977 451.404938,43.764767 
	C450.330902,44.427429 448.917358,44.539886 447.279602,44.932018 
z"/>
<path fill="#707790" opacity="1.000000" stroke="none" 
	d="
M373.038544,33.790810 
	C370.602051,36.137268 368.165558,38.483734 365.517151,41.100677 
	C365.058197,41.084221 364.811218,40.797287 364.372437,40.301060 
	C366.902100,37.488655 369.623566,34.885540 372.697266,32.510307 
	C373.045837,33.089066 373.042175,33.439938 373.038544,33.790810 
z"/>
<path fill="#A8E6D4" opacity="1.000000" stroke="none" 
	d="
M59.393749,34.463631 
	C60.514385,37.218384 61.371365,39.742947 62.353020,42.635307 
	C61.460640,55.707901 54.941223,61.750809 42.117477,61.857601 
	C39.121380,61.882553 36.124538,61.897480 33.128742,61.860420 
	C28.545942,61.803734 26.428364,64.280937 26.269983,68.616051 
	C26.148510,71.941017 26.522791,75.308609 26.124273,78.590179 
	C25.866245,80.714890 24.613121,82.718742 23.805893,84.776756 
	C23.087437,82.800430 21.856377,80.851410 21.749331,78.842506 
	C21.460527,73.422607 21.650524,67.977196 21.057438,62.298119 
	C20.646740,64.182594 19.963062,66.055222 19.880606,67.953957 
	C19.692986,72.274254 19.981388,76.620010 19.680639,80.927788 
	C19.587515,82.261650 18.218937,83.506470 17.434313,84.792053 
	C16.620691,83.574921 15.168530,82.389671 15.105866,81.135033 
	C14.857157,76.155449 14.810346,71.139801 15.118340,66.164116 
	C15.663626,57.354893 22.786913,50.679207 31.974907,50.216370 
	C36.293060,49.998840 40.729244,50.660019 44.915215,49.874569 
	C47.148643,49.455486 50.305260,47.008381 50.593922,45.104858 
	C50.889320,43.156925 48.334171,40.642059 46.745266,38.593739 
	C45.798050,37.372650 44.309006,36.571865 43.063541,35.582130 
	C44.619595,34.934021 46.175644,34.285912 48.185951,33.531052 
	C49.308010,33.609852 49.975807,33.795399 50.643608,33.980946 
	C50.717224,33.698685 50.790840,33.416420 50.864452,33.134159 
	C49.899105,32.759937 48.933758,32.385715 47.968410,32.011494 
	C38.846138,32.011494 29.723864,32.011494 19.799250,32.011494 
	C19.799250,35.573494 20.042683,38.861023 19.693054,42.084221 
	C19.526730,43.617550 18.230772,45.028347 17.446533,46.494648 
	C16.626881,45.106491 15.083516,43.711319 15.096891,42.331238 
	C15.277255,23.722343 12.171564,27.380356 29.461742,26.994020 
	C33.954067,26.893642 38.451248,27.028839 42.944862,26.963768 
	C49.489258,26.868996 55.031372,28.923376 59.393749,34.463631 
M49.195679,53.988670 
	C44.109871,54.333073 39.016777,54.597004 33.941406,55.056660 
	C31.493376,55.278362 29.078716,55.868515 26.648945,56.291832 
	C48.935696,57.521412 51.445595,57.005814 53.956356,51.257359 
	C52.372299,52.201107 51.161972,52.922199 49.195679,53.988670 
M54.965485,38.280949 
	C55.309860,41.742420 55.654236,45.203892 56.089466,49.578587 
	C58.430119,45.135460 58.023434,41.697464 54.965485,38.280949 
M22.993418,60.589127 
	C22.811474,60.533630 22.629528,60.478138 22.447584,60.422646 
	C22.512562,60.602787 22.577541,60.782932 22.993418,60.589127 
M24.220163,58.594959 
	C24.394835,58.678238 24.569504,58.761513 24.744175,58.844791 
	C24.705830,58.654579 24.667486,58.464363 24.220163,58.594959 
M54.975357,50.435120 
	C55.207958,50.428787 55.440563,50.422451 55.673164,50.416115 
	C55.553913,50.301861 55.434662,50.187607 54.975357,50.435120 
z"/>
<path fill="#A8E6D4" opacity="1.000000" stroke="none" 
	d="
M68.521278,45.468571 
	C68.534950,41.193188 68.621674,37.378159 68.648239,33.562714 
	C68.673843,29.885206 70.309349,27.229364 74.066849,27.130024 
	C78.160889,27.021784 79.880989,29.916239 79.903572,33.699070 
	C79.975876,45.815060 79.947136,57.931709 79.940742,70.048096 
	C79.938469,74.362854 79.888542,78.677589 79.813110,83.453529 
	C76.516418,85.881271 75.171577,84.448685 75.120552,81.170776 
	C75.025909,75.091629 75.054329,69.010567 75.035706,62.002445 
	C75.039909,51.611626 75.039909,42.148663 75.039909,32.685699 
	C74.557304,32.668312 74.074699,32.650925 73.592094,32.633537 
	C73.465683,34.151375 73.242668,35.668415 73.230080,37.187195 
	C73.183281,42.833652 73.151566,48.481377 73.224632,54.127197 
	C73.261887,57.006413 72.393311,58.669167 69.158279,57.928673 
	C68.961525,53.928696 68.764771,49.928722 68.521278,45.468571 
z"/>
<path fill="#575679" opacity="1.000000" stroke="none" 
	d="
M69.127777,58.181644 
	C72.393311,58.669167 73.261887,57.006413 73.224632,54.127197 
	C73.151566,48.481377 73.183281,42.833652 73.230080,37.187195 
	C73.242668,35.668415 73.465683,34.151375 73.592094,32.633537 
	C74.074699,32.650925 74.557304,32.668312 75.039909,32.685699 
	C75.039909,42.148663 75.039909,51.611626 74.966751,61.538437 
	C72.961494,60.813061 71.029396,59.623837 69.127777,58.181644 
z"/>
<path fill="#A6E3D2" opacity="1.000000" stroke="none" 
	d="
M48.078022,32.270897 
	C48.933758,32.385715 49.899105,32.759937 50.864452,33.134159 
	C50.790840,33.416420 50.717224,33.698685 50.643608,33.980946 
	C49.975807,33.795399 49.308010,33.609852 48.463341,33.254543 
	C48.253525,32.899956 48.220581,32.715126 48.078022,32.270897 
z"/>
<path fill="#A8E7D4" opacity="1.000000" stroke="none" 
	d="
M259.899353,28.312599 
	C266.515167,27.678236 272.937958,27.234425 279.368378,27.010956 
	C284.011566,26.849594 288.670746,26.851631 293.310455,27.057880 
	C294.780731,27.123240 296.211273,28.082117 297.660004,28.632095 
	C296.847839,30.008965 296.035675,31.385836 295.233917,32.745071 
	C295.836884,33.688015 296.778839,35.161022 297.720795,36.634026 
	C296.103333,37.152546 294.503662,38.040535 292.865051,38.119282 
	C288.226318,38.342205 283.571594,38.233788 278.459839,38.330627 
	C272.880646,38.405376 267.764771,38.405376 262.860657,38.405376 
	C262.482727,39.040924 262.200378,39.304600 262.172668,39.592785 
	C261.158356,50.132214 261.161591,50.128105 271.504669,50.140663 
	C273.334625,50.142887 275.230713,49.921009 276.969666,50.334747 
	C278.016327,50.583771 278.818268,51.861477 279.730164,52.676918 
	C278.797211,53.443008 277.888733,54.832886 276.927246,54.870541 
	C271.944153,55.065697 266.875946,55.386040 261.992584,54.642952 
	C260.161987,54.364395 257.888916,51.557999 257.351288,49.502876 
	C256.561401,46.483433 257.147705,43.103962 257.147705,39.877880 
	C256.632477,39.848537 256.117249,39.819195 255.602020,39.789852 
	C255.464691,41.455482 255.213608,43.120754 255.208313,44.786804 
	C255.170776,56.605850 255.256958,68.426094 255.088638,80.242897 
	C255.067261,81.743134 253.797623,83.225594 253.106308,84.716293 
	C252.273804,83.195099 250.742157,81.684509 250.718887,80.151039 
	C250.524475,67.336052 250.625824,54.516811 250.595108,41.698959 
	C250.586365,38.053349 251.815933,35.495075 255.332977,33.711040 
	C257.180969,32.773632 258.275055,30.350006 259.899353,28.312599 
M286.758698,33.464954 
	C288.131683,33.326946 289.504700,33.188934 290.877686,33.050926 
	C290.820862,32.812332 290.764008,32.573742 290.707184,32.335152 
	C288.540100,32.335152 286.373016,32.335152 284.205933,32.335152 
	C284.198730,32.567665 284.191528,32.800182 284.184326,33.032696 
	C284.789886,33.168289 285.395416,33.303886 286.758698,33.464954 
z"/>
<path fill="#A5E1D1" opacity="1.000000" stroke="none" 
	d="
M243.728058,82.528976 
	C241.831024,83.585083 240.055786,84.868271 238.237930,84.931816 
	C231.248520,85.176094 224.243332,85.116692 217.249557,84.944962 
	C216.059067,84.915733 214.895721,83.780624 213.719833,83.156418 
	C214.850327,82.261795 215.941467,80.659485 217.118057,80.594078 
	C222.434143,80.298561 227.774582,80.455734 233.105896,80.410408 
	C234.885300,80.395279 236.663696,80.262787 238.566299,79.015091 
	C237.131424,78.872215 235.697632,78.619583 234.261520,78.605698 
	C228.430359,78.549316 222.596359,78.660271 216.767487,78.529137 
	C211.168106,78.403160 208.964493,76.154610 208.920944,70.487671 
	C208.837708,59.658081 208.889862,48.827454 208.886063,37.997257 
	C208.885452,36.239048 208.885986,34.480835 208.885986,32.722626 
	C208.409805,32.671032 207.933640,32.619442 207.457458,32.567852 
	C207.315781,33.835514 207.062057,35.102230 207.051376,36.370995 
	C206.999481,42.535442 207.128067,48.704807 206.894821,54.861141 
	C206.853622,55.948250 205.397919,56.981754 204.595413,58.040009 
	C203.791611,56.977013 202.321533,55.932415 202.291595,54.848057 
	C202.089371,47.523056 201.966812,40.180168 202.274506,32.862240 
	C202.482162,27.923559 206.017181,26.218704 211.527679,28.185015 
	C212.472778,30.869373 213.533066,33.397896 213.578140,35.944393 
	C213.769135,46.733311 213.771149,57.529373 213.599121,68.318947 
	C213.535889,72.284828 214.685974,74.081795 218.975113,73.865807 
	C224.937302,73.565582 230.926392,73.740005 236.903015,73.802582 
	C243.111786,73.867577 244.718552,75.865768 243.728058,82.528976 
z"/>
<path fill="#A6E3D2" opacity="1.000000" stroke="none" 
	d="
M261.941223,79.593781 
	C261.135620,81.630806 260.331360,83.216499 259.527069,84.802185 
	C258.706146,83.232620 257.272736,81.699249 257.177460,80.086800 
	C256.874481,74.959663 256.975098,69.800797 257.097717,64.658447 
	C257.239258,58.723740 258.892029,57.148899 264.913391,56.992619 
	C268.230713,56.906521 271.578125,56.723724 274.860626,57.070412 
	C276.534790,57.247234 278.095703,58.496338 279.707825,59.260757 
	C278.002502,60.131855 276.369476,61.500629 274.575500,61.761185 
	C271.648682,62.186268 268.612549,61.991085 265.630585,61.865753 
	C262.822174,61.747723 261.827484,62.951183 261.914764,65.699745 
	C262.056946,70.176430 261.946442,74.661133 261.941223,79.593781 
z"/>
<path fill="#A9E9D5" opacity="1.000000" stroke="none" 
	d="
M135.343170,84.316422 
	C127.851089,77.074333 120.714554,69.948738 113.902992,63.147614 
	C112.186935,65.640656 110.985596,67.946800 109.269302,69.767517 
	C105.160309,74.126526 100.798653,78.246780 96.559326,82.483757 
	C93.884369,85.157227 90.888969,86.372810 87.835526,83.424393 
	C84.776527,80.470596 85.825554,77.416267 88.509361,74.704346 
	C93.428032,69.734131 98.370872,64.787796 103.279076,59.807293 
	C104.416870,58.652725 105.455833,57.400761 107.221115,55.435749 
	C101.174286,49.591614 95.297501,43.987671 89.527321,38.276028 
	C88.255173,37.016796 86.699211,35.470341 86.472610,33.884830 
	C86.229843,32.186161 86.892876,29.718903 88.100815,28.632359 
	C89.301300,27.552525 92.397263,26.809387 93.411873,27.575100 
	C101.153412,33.417530 108.127640,40.082870 113.706352,48.705868 
	C114.088722,48.416050 115.058762,47.680805 116.284241,46.590050 
	C121.981033,40.844952 127.388687,35.420761 132.875427,30.077791 
	C136.618484,26.432816 139.928177,25.989695 142.374847,28.859844 
	C145.397171,32.405258 143.547348,35.323433 140.831558,37.984592 
	C134.907120,43.789799 128.968338,49.580345 122.164635,56.227646 
	C128.911407,62.667271 135.230484,68.319374 141.018387,74.471214 
	C142.602982,76.155434 143.622498,79.593285 143.081055,81.774559 
	C142.230347,85.201797 138.952042,85.658043 135.343170,84.316422 
M133.035568,36.529736 
	C126.563728,42.890694 120.091873,49.251652 115.105301,54.152779 
	C123.638878,62.782711 131.522781,70.755638 139.406693,78.728561 
	C138.078079,77.844139 137.045593,76.660187 135.939117,75.549957 
	C130.661316,70.254272 125.475899,64.858803 120.026993,59.744530 
	C117.145889,57.040359 117.256943,55.076534 120.056519,52.399750 
	C125.698364,47.005383 131.096542,41.355110 136.555374,35.771427 
	C137.477753,34.827965 138.200653,33.689484 139.015717,32.641106 
	C138.667770,32.342556 138.319809,32.044003 137.971848,31.745451 
	C136.492493,33.174118 135.013138,34.602787 133.035568,36.529736 
M96.539795,38.958630 
	C100.141014,42.540543 103.742233,46.122456 106.373489,48.739601 
	C101.802780,44.108814 96.318764,38.552711 90.834740,32.996609 
	C90.805428,32.996277 90.776115,32.995945 90.746796,32.995613 
	C92.511894,34.816792 94.276985,36.637970 96.539795,38.958630 
M99.997498,72.496071 
	C102.956367,69.551247 105.915245,66.606430 108.874115,63.661613 
	C108.206627,63.006741 107.539139,62.351871 106.871651,61.696999 
	C101.167770,67.076126 95.463890,72.455261 89.760010,77.834389 
	C90.879272,78.962700 91.998528,80.091003 93.117783,81.219315 
	C95.243217,78.476944 97.368645,75.734573 99.997498,72.496071 
M111.169724,63.163807 
	C111.492996,62.528988 111.816277,61.894169 112.139557,61.259346 
	C111.071686,61.188736 110.003815,61.118126 108.935944,61.047520 
	C109.369545,61.715118 109.803146,62.382717 111.169724,63.163807 
M111.466629,49.060993 
	C110.543625,49.292645 109.620613,49.524296 108.697609,49.755947 
	C109.111488,50.391785 109.525360,51.027622 109.939240,51.663464 
	C110.697639,51.014172 111.456032,50.364880 111.466629,49.060993 
z"/>
<path fill="#A8E7D4" opacity="1.000000" stroke="none" 
	d="
M184.530182,26.876934 
	C186.157349,26.874325 187.329102,27.053257 188.479340,26.961792 
	C192.872040,26.612492 196.147079,28.691061 196.124268,32.863651 
	C196.100479,37.216591 192.315094,38.270702 188.303253,38.213299 
	C180.649582,38.103790 172.991440,38.097584 165.339340,38.253788 
	C163.664764,38.287971 162.007767,39.182358 160.342667,39.680584 
	C161.281876,40.812931 162.681732,41.823212 163.023743,43.113811 
	C163.332413,44.278629 162.769104,45.948296 162.032974,47.008213 
	C161.625061,47.595562 160.074783,47.389526 159.000671,48.623970 
	C160.676163,48.797733 162.350128,49.101929 164.027420,49.121483 
	C169.684906,49.187450 175.345535,49.060833 181.001236,49.181934 
	C186.492844,49.299526 189.524384,51.971729 189.404587,56.296772 
	C189.294525,60.270649 186.141968,62.779816 180.996307,62.834843 
	C175.172302,62.897121 169.332962,62.617188 163.529205,62.966534 
	C161.039337,63.116405 158.622437,64.478424 156.053406,65.636055 
	C155.934402,65.982407 155.987045,65.922867 155.625488,66.092598 
	C154.657745,67.904495 153.708191,69.508041 153.518204,71.197021 
	C153.144745,74.517303 154.290207,76.113693 157.046509,77.006104 
	C157.038208,76.960922 156.968445,76.901154 156.968445,76.901154 
	C158.832596,78.072609 160.654404,80.168373 162.568222,80.256065 
	C171.009476,80.642868 179.477249,80.450287 187.935410,80.469727 
	C189.262192,80.472778 190.671021,80.208664 191.894196,80.569206 
	C193.306381,80.985451 194.554871,81.957039 195.874451,82.687469 
	C194.510666,83.476349 193.146881,84.265236 191.389282,85.115494 
	C181.183502,85.122902 171.371475,85.076073 161.559555,85.012474 
	C155.128571,84.970787 149.751801,80.162117 148.948944,73.762451 
	C148.043503,66.544769 152.103760,59.871941 159.027390,58.824268 
	C164.893356,57.936634 170.950806,58.308701 176.923965,58.139370 
	C178.420059,58.096958 179.968307,58.346523 181.398788,58.033375 
	C182.517853,57.788399 183.491898,56.880886 184.530396,56.267761 
	C183.455124,55.524963 182.402679,54.181736 181.300751,54.139809 
	C175.486786,53.918598 169.660110,54.056313 163.838303,54.011356 
	C154.642502,53.940350 148.819580,48.620804 148.827606,40.356228 
	C148.835312,32.401569 154.692825,27.069071 163.604828,26.987574 
	C170.424438,26.925211 177.244843,26.948889 184.530182,26.876934 
M156.772034,47.160225 
	C157.010208,46.548416 157.621979,45.764568 157.431213,45.350277 
	C153.853561,37.580757 156.191925,33.804691 164.832748,33.703022 
	C171.632019,33.623020 178.433090,33.709332 185.232910,33.658913 
	C186.903122,33.646530 188.571503,33.388836 190.240723,33.243919 
	C190.206924,32.748417 190.173111,32.252914 190.139297,31.757410 
	C180.968887,31.757410 171.771255,31.360331 162.643784,31.986361 
	C159.699539,32.188301 156.098495,34.462200 154.306534,36.898087 
	C152.013474,40.015179 153.107681,43.889988 156.772034,47.160225 
z"/>
<path fill="#626182" opacity="1.000000" stroke="none" 
	d="
M308.399475,64.902824 
	C309.580048,66.920753 310.350891,68.966591 311.121735,71.012421 
	C310.643799,71.196426 310.165863,71.380424 309.687958,71.564430 
	C308.852692,69.618507 308.017426,67.672585 307.176331,65.357422 
	C307.443573,64.969025 307.716675,64.949875 308.399475,64.902824 
z"/>
<path fill="#A5E1D1" opacity="1.000000" stroke="none" 
	d="
M155.894684,65.982307 
	C163.963364,65.586952 172.069427,65.055801 180.182251,64.915283 
	C181.736877,64.888351 183.318130,66.398659 184.887100,67.199776 
	C183.316833,67.986275 181.778305,69.366058 180.170578,69.452034 
	C174.538879,69.753204 168.881287,69.537979 163.238708,69.699539 
	C162.252640,69.727783 161.291550,70.628555 160.318909,71.126343 
	C160.735947,71.937592 161.109619,72.775032 161.580017,73.554070 
	C162.316681,74.774078 163.118713,75.954628 163.893066,77.151886 
	C162.241058,77.370300 160.593246,77.647346 158.934097,77.765648 
	C158.522629,77.794991 158.074478,77.310020 157.305817,76.981308 
	C156.968445,76.901154 157.038208,76.960922 156.973053,76.641769 
	C156.600937,72.856026 156.293991,69.389450 155.987045,65.922867 
	C155.987045,65.922867 155.934402,65.982407 155.894684,65.982307 
z"/>
<path fill="#A8E7D4" opacity="1.000000" stroke="none" 
	d="
M551.118347,59.539886 
	C550.054749,62.636074 553.280396,67.035736 547.550415,67.941689 
	C546.836060,63.822414 546.320435,59.716621 546.236755,55.602043 
	C546.086060,48.187817 546.194153,40.768326 546.194153,33.351032 
	C545.577698,33.338600 544.961182,33.326168 544.344727,33.313740 
	C544.344727,38.808853 544.547729,44.314987 544.250183,49.793941 
	C544.121277,52.167332 542.600403,56.564030 542.322083,56.515850 
	C538.082214,55.781975 540.022644,52.198898 539.866821,49.753101 
	C539.560547,44.945335 539.749756,40.104259 539.780334,35.277260 
	C539.814880,29.820021 541.883423,26.688639 545.495056,27.093866 
	C550.189087,27.620546 551.058167,31.064865 551.031982,35.105347 
	C550.980225,43.094517 551.043762,51.084438 551.118347,59.539886 
z"/>
<path fill="#707790" opacity="1.000000" stroke="none" 
	d="
M514.957153,33.118553 
	C516.421753,34.401024 518.271912,35.433655 519.290405,37.005226 
	C527.953613,50.372250 536.471130,63.833817 545.005493,77.284050 
	C545.400146,77.905998 545.539734,78.689766 544.819275,79.995049 
	C543.835876,78.650291 542.782654,77.350700 541.880127,75.953682 
	C534.226685,64.106461 526.638000,52.217144 518.931152,40.404881 
	C517.589417,38.348461 515.784058,36.594517 514.174927,34.265633 
	C514.423706,33.593113 514.690430,33.355831 514.957153,33.118553 
z"/>
<path fill="#666585" opacity="1.000000" stroke="none" 
	d="
M514.628296,32.904427 
	C514.690430,33.355831 514.423706,33.593113 513.957764,34.009296 
	C511.249817,34.188198 508.741119,34.188198 506.232452,34.188198 
	C506.210022,33.688900 506.187622,33.189602 506.165192,32.690304 
	C508.876617,32.690304 511.588013,32.690304 514.628296,32.904427 
z"/>
<path fill="#696888" opacity="1.000000" stroke="none" 
	d="
M318.422913,76.849670 
	C332.892517,82.695930 345.477173,74.600197 345.795319,59.483559 
	C345.983704,50.533234 345.829742,41.575706 347.001862,32.420570 
	C347.302032,33.311378 347.856995,34.200527 347.862793,35.093254 
	C347.919128,43.744572 348.150665,52.407314 347.800964,61.045292 
	C347.429504,70.221619 342.797180,76.797707 334.062286,79.984772 
	C325.928955,82.952347 318.691772,81.019371 312.489624,75.105736 
	C311.721497,74.373360 311.268890,73.310104 311.275665,71.696732 
	C313.543457,73.355881 315.811279,75.015030 318.422913,76.849670 
z"/>
<path fill="#676686" opacity="1.000000" stroke="none" 
	d="
M445.721283,36.695484 
	C454.781311,29.409941 467.920593,28.715807 475.006989,36.340767 
	C464.678650,31.574152 455.713989,31.512774 446.728638,37.386353 
	C446.031616,37.078979 445.876465,36.887234 445.721283,36.695484 
z"/>
<path fill="#676686" opacity="1.000000" stroke="none" 
	d="
M446.419189,37.558613 
	C441.292694,42.795521 438.485260,48.987030 438.108551,56.754536 
	C434.890106,51.887512 438.218048,43.223038 445.412415,36.831642 
	C445.876465,36.887234 446.031616,37.078979 446.419189,37.558613 
z"/>
<path fill="#676686" opacity="1.000000" stroke="none" 
	d="
M480.563965,40.804211 
	C479.130615,40.039192 477.929626,39.007755 476.728638,37.976318 
	C477.101105,37.616505 477.473572,37.256687 477.846039,36.896870 
	C478.829437,38.110512 479.812866,39.324150 480.563965,40.804211 
z"/>
<path fill="#636283" opacity="1.000000" stroke="none" 
	d="
M373.504150,33.767014 
	C373.042175,33.439938 373.045837,33.089066 373.044403,32.475063 
	C380.482727,32.100044 387.925964,31.978075 395.369659,31.890985 
	C396.161957,31.881714 396.956635,32.076500 397.750214,32.176624 
	C397.749786,32.698818 397.749359,33.221016 397.748932,33.743210 
	C389.822510,33.743210 381.896118,33.743210 373.504150,33.767014 
z"/>
<path fill="#636283" opacity="1.000000" stroke="none" 
	d="
M401.054199,60.670845 
	C399.956421,60.231003 398.848633,59.447323 397.857086,58.297760 
	C398.996918,58.730255 400.020569,59.528629 401.054199,60.670845 
z"/>
<path fill="#636283" opacity="1.000000" stroke="none" 
	d="
M402.304016,63.756638 
	C401.499603,63.197289 400.965332,62.345619 400.720062,61.212723 
	C401.530762,61.775768 402.052429,62.620041 402.304016,63.756638 
z"/>
<path fill="#555377" opacity="1.000000" stroke="none" 
	d="
M49.573662,53.815979 
	C51.161972,52.922199 52.372299,52.201107 53.956356,51.257359 
	C51.445595,57.005814 48.935696,57.521412 26.648945,56.291832 
	C29.078716,55.868515 31.493376,55.278362 33.941406,55.056660 
	C39.016777,54.597004 44.109871,54.333073 49.573662,53.815979 
z"/>
<path fill="#555377" opacity="1.000000" stroke="none" 
	d="
M55.317558,38.301579 
	C58.023434,41.697464 58.430119,45.135460 56.089466,49.578587 
	C55.654236,45.203892 55.309860,41.742420 55.317558,38.301579 
z"/>
<path fill="#555377" opacity="1.000000" stroke="none" 
	d="
M22.817970,60.776100 
	C22.577541,60.782932 22.512562,60.602787 22.447582,60.422646 
	C22.629528,60.478138 22.811474,60.533630 22.817970,60.776100 
z"/>
<path fill="#555377" opacity="1.000000" stroke="none" 
	d="
M24.424652,58.434555 
	C24.667486,58.464363 24.705830,58.654579 24.744175,58.844791 
	C24.569504,58.761513 24.394835,58.678238 24.424652,58.434555 
z"/>
<path fill="#555377" opacity="1.000000" stroke="none" 
	d="
M55.145386,50.254238 
	C55.434662,50.187607 55.553913,50.301861 55.673164,50.416115 
	C55.440563,50.422451 55.207958,50.428787 55.145386,50.254238 
z"/>
<path fill="#626182" opacity="1.000000" stroke="none" 
	d="
M286.379822,33.452217 
	C285.395416,33.303886 284.789886,33.168289 284.184326,33.032696 
	C284.191528,32.800182 284.198730,32.567665 284.205933,32.335152 
	C286.373016,32.335152 288.540100,32.335152 290.707184,32.335152 
	C290.764008,32.573742 290.820862,32.812332 290.877686,33.050926 
	C289.504700,33.188934 288.131683,33.326946 286.379822,33.452217 
z"/>
<path fill="#696888" opacity="1.000000" stroke="none" 
	d="
M133.284668,36.280594 
	C135.013138,34.602787 136.492493,33.174118 137.971848,31.745451 
	C138.319809,32.044003 138.667770,32.342556 139.015717,32.641106 
	C138.200653,33.689484 137.477753,34.827965 136.555374,35.771427 
	C131.096542,41.355110 125.698364,47.005383 120.056519,52.399750 
	C117.256943,55.076534 117.145889,57.040359 120.026993,59.744530 
	C125.475899,64.858803 130.661316,70.254272 135.939117,75.549957 
	C137.045593,76.660187 138.078079,77.844139 139.406693,78.728561 
	C131.522781,70.755638 123.638878,62.782711 115.105301,54.152779 
	C120.091873,49.251652 126.563728,42.890694 133.284668,36.280594 
z"/>
<path fill="#696888" opacity="1.000000" stroke="none" 
	d="
M96.290939,38.708889 
	C94.276985,36.637970 92.511894,34.816792 90.746796,32.995613 
	C90.776115,32.995945 90.805428,32.996277 90.834740,32.996609 
	C96.318764,38.552711 101.802780,44.108814 106.373489,48.739601 
	C103.742233,46.122456 100.141014,42.540543 96.290939,38.708889 
z"/>
<path fill="#676686" opacity="1.000000" stroke="none" 
	d="
M99.745789,72.744141 
	C97.368645,75.734573 95.243217,78.476944 93.117783,81.219315 
	C91.998528,80.091003 90.879272,78.962700 89.760010,77.834389 
	C95.463890,72.455261 101.167770,67.076126 106.871651,61.696999 
	C107.539139,62.351871 108.206627,63.006741 108.874115,63.661613 
	C105.915245,66.606430 102.956367,69.551247 99.745789,72.744141 
z"/>
<path fill="#575679" opacity="1.000000" stroke="none" 
	d="
M110.703232,63.107063 
	C109.803146,62.382717 109.369545,61.715118 108.935944,61.047516 
	C110.003815,61.118126 111.071686,61.188736 112.139557,61.259346 
	C111.816277,61.894169 111.492996,62.528988 110.703232,63.107063 
z"/>
<path fill="#575679" opacity="1.000000" stroke="none" 
	d="
M111.840530,49.388290 
	C111.456032,50.364880 110.697639,51.014172 109.939240,51.663460 
	C109.525360,51.027622 109.111488,50.391785 108.697609,49.755951 
	C109.620613,49.524296 110.543625,49.292645 111.840530,49.388290 
z"/>
<path fill="#707790" opacity="1.000000" stroke="none" 
	d="
M156.417908,46.973846 
	C153.107681,43.889988 152.013474,40.015179 154.306534,36.898087 
	C156.098495,34.462200 159.699539,32.188301 162.643784,31.986361 
	C171.771255,31.360331 180.968887,31.757410 190.139297,31.757410 
	C190.173111,32.252914 190.206924,32.748417 190.240723,33.243919 
	C188.571503,33.388836 186.903122,33.646530 185.232910,33.658913 
	C178.433090,33.709332 171.632019,33.623020 164.832748,33.703022 
	C156.191925,33.804691 153.853561,37.580757 157.431213,45.350277 
	C157.621979,45.764568 157.010208,46.548416 156.417908,46.973846 
z"/>
<path fill="#5C5C7D" opacity="1.000000" stroke="none" 
	d="
M155.625488,66.092598 
	C156.293991,69.389450 156.600937,72.856026 156.981354,76.686951 
	C154.290207,76.113693 153.144745,74.517303 153.518204,71.197021 
	C153.708191,69.508041 154.657745,67.904495 155.625488,66.092598 
z"/>
</svg>